<svg xmlns="http://www.w3.org/2000/svg" version="1.1" xmlns:xlink="http://www.w3.org/1999/xlink" xmlns:svgjs="http://svgjs.dev/svgjs" width="1920" height="1080" preserveAspectRatio="none" viewBox="0 0 1920 1080"><g mask="url(&quot;#SvgjsMask1422&quot;)" fill="none"><rect width="1920" height="1080" x="0" y="0" fill="rgba(62, 63, 99, 1)"></rect><path d="M1952 1080L0 1080 L0 624.7Q124.8 589.5, 160 714.3Q179.45 637.75, 256 657.2Q278.43 519.63, 416 542.06Q473.69 503.75, 512 561.44Q626.94 516.38, 672 631.32Q770.29 569.61, 832 667.9Q870.83 610.73, 928 649.56Q970.9 596.46, 1024 639.36Q1086.93 542.3, 1184 605.23Q1207.28 532.51, 1280 555.79Q1375.67 491.46, 1440 587.13Q1509.57 560.7, 1536 630.27Q1602.54 536.81, 1696 603.34Q1832.06 579.4, 1856 715.46Q1898.32 661.78, 1952 704.09z" fill="rgba(95, 97, 139, 1)"></path><path d="M2080 1080L0 1080 L0 851.6Q3.2 694.8, 160 698Q199.49 641.49, 256 680.97Q337.38 666.35, 352 747.73Q418.36 718.09, 448 784.44Q517.8 694.25, 608 764.05Q675.25 735.3, 704 802.55Q771.13 773.68, 800 840.82Q822.83 703.65, 960 726.49Q996.02 666.51, 1056 702.53Q1127.64 614.17, 1216 685.81Q1337.83 647.63, 1376 769.46Q1463.05 696.51, 1536 783.56Q1592.5 744.06, 1632 800.56Q1651.47 724.03, 1728 743.51Q1786.5 706.01, 1824 764.51Q1886.96 731.47, 1920 794.43Q2018.45 732.88, 2080 831.32z" fill="rgba(118, 125, 163, 1)"></path><path d="M2048 1080L0 1080 L0 924.11Q14.75 842.86, 96 857.61Q165.72 767.33, 256 837.05Q322.74 743.78, 416 810.52Q484.2 782.72, 512 850.92Q581.53 824.45, 608 893.98Q627.49 817.47, 704 836.95Q763.68 800.63, 800 860.31Q935.36 835.66, 960 971.02Q1022.68 873.7, 1120 936.38Q1119.1 839.48, 1216 838.57Q1257.88 784.45, 1312 826.32Q1429.79 784.11, 1472 901.9Q1563.38 897.27, 1568 988.65Q1578.86 839.5, 1728 850.36Q1816.53 778.89, 1888 867.43Q1948.55 767.98, 2048 828.54z" fill="rgba(153, 171, 199, 1)"></path><path d="M2048 1080L0 1080 L0 1019.78Q44.58 968.36, 96 1012.93Q185.87 1006.8, 192 1096.66Q234.81 1043.47, 288 1086.29Q309.06 1011.35, 384 1032.4Q392.2 944.61, 480 952.81Q535.5 912.3, 576 967.8Q705.83 937.63, 736 1067.46Q762.3 997.76, 832 1024.07Q893.88 989.95, 928 1051.84Q931.96 959.79, 1024 963.75Q1098.49 878.24, 1184 952.73Q1331.97 940.71, 1344 1088.68Q1358.87 1007.55, 1440 1022.42Q1482.93 969.35, 1536 1012.28Q1589.34 905.62, 1696 958.96Q1737.92 904.88, 1792 946.8Q1867.04 925.84, 1888 1000.87Q1985.7 938.57, 2048 1036.27z" fill="white"></path></g><defs><mask id="SvgjsMask1422"><rect width="1920" height="1080" fill="#ffffff"></rect></mask></defs></svg>